<?xml version="1.0" encoding="utf-8" standalone="no"?>
<!DOCTYPE svg PUBLIC "-//W3C//DTD SVG 1.1//EN"
  "http://www.w3.org/Graphics/SVG/1.1/DTD/svg11.dtd">
<!-- Created with matplotlib (http://matplotlib.org/) -->
<svg height="288pt" version="1.1" viewBox="0 0 432 288" width="432pt" xmlns="http://www.w3.org/2000/svg" xmlns:xlink="http://www.w3.org/1999/xlink">
 <defs>
  <style type="text/css">
*{stroke-linecap:butt;stroke-linejoin:round;}
  </style>
 </defs>
 <g id="figure_1">
  <g id="patch_1">
   <path d="M 0 288 
L 432 288 
L 432 0 
L 0 0 
z
" style="fill:#ffffff;"/>
  </g>
  <g id="axes_1">
   <g id="LineCollection_1">
    <path clip-path="url(#pc020202424)" d="M 394.512393 144.21377 
L 271.163359 30.592583 
" style="fill:none;stroke:#000000;"/>
    <path clip-path="url(#pc020202424)" d="M 394.512393 144.21377 
L 111.073059 47.561817 
" style="fill:none;stroke:#000000;"/>
    <path clip-path="url(#pc020202424)" d="M 385.775379 107.296009 
L 271.163386 257.834951 
" style="fill:none;stroke:#000000;"/>
    <path clip-path="url(#pc020202424)" d="M 360.419561 73.992018 
L 46.22462 181.131529 
" style="fill:none;stroke:#000000;"/>
    <path clip-path="url(#pc020202424)" d="M 360.419561 73.992018 
L 71.580449 214.435538 
" style="fill:none;stroke:#000000;"/>
    <path clip-path="url(#pc020202424)" d="M 360.419561 73.992018 
L 160.836629 30.59259 
" style="fill:none;stroke:#000000;"/>
    <path clip-path="url(#pc020202424)" d="M 320.92695 47.561817 
L 320.926919 240.865738 
" style="fill:none;stroke:#000000;"/>
    <path clip-path="url(#pc020202424)" d="M 320.92695 47.561817 
L 160.836629 30.59259 
" style="fill:none;stroke:#000000;"/>
    <path clip-path="url(#pc020202424)" d="M 320.92695 47.561817 
L 111.073059 47.561817 
" style="fill:none;stroke:#000000;"/>
    <path clip-path="url(#pc020202424)" d="M 271.163359 30.592583 
L 160.836619 257.834951 
" style="fill:none;stroke:#000000;"/>
    <path clip-path="url(#pc020202424)" d="M 215.999992 24.745387 
L 111.073059 47.561817 
" style="fill:none;stroke:#000000;"/>
    <path clip-path="url(#pc020202424)" d="M 160.836629 30.59259 
L 71.580449 214.435538 
" style="fill:none;stroke:#000000;"/>
    <path clip-path="url(#pc020202424)" d="M 71.580427 73.992025 
L 320.926919 240.865738 
" style="fill:none;stroke:#000000;"/>
    <path clip-path="url(#pc020202424)" d="M 71.580427 73.992025 
L 160.836619 257.834951 
" style="fill:none;stroke:#000000;"/>
    <path clip-path="url(#pc020202424)" d="M 46.224631 107.296005 
L 160.836619 257.834951 
" style="fill:none;stroke:#000000;"/>
    <path clip-path="url(#pc020202424)" d="M 37.487606 144.213781 
L 271.163386 257.834951 
" style="fill:none;stroke:#000000;"/>
    <path clip-path="url(#pc020202424)" d="M 37.487606 144.213781 
L 46.22462 181.131529 
" style="fill:none;stroke:#000000;"/>
    <path clip-path="url(#pc020202424)" d="M 46.22462 181.131529 
L 71.580449 214.435538 
" style="fill:none;stroke:#000000;"/>
    <path clip-path="url(#pc020202424)" d="M 111.073081 240.865738 
L 320.926919 240.865738 
" style="fill:none;stroke:#000000;"/>
    <path clip-path="url(#pc020202424)" d="M 111.073081 240.865738 
L 160.836619 257.834951 
" style="fill:none;stroke:#000000;"/>
    <path clip-path="url(#pc020202424)" d="M 160.836619 257.834951 
L 271.163386 257.834951 
" style="fill:none;stroke:#000000;"/>
    <path clip-path="url(#pc020202424)" d="M 160.836619 257.834951 
L 385.775379 181.131525 
" style="fill:none;stroke:#000000;"/>
    <path clip-path="url(#pc020202424)" d="M 320.926919 240.865738 
L 360.419551 214.43553 
" style="fill:none;stroke:#000000;"/>
   </g>
   <g id="LineCollection_2">
    <path clip-path="url(#pc020202424)" d="M 394.512397 144.213771 
L 271.163387 257.834953 
" style="fill:none;stroke:#000000;"/>
    <path clip-path="url(#pc020202424)" d="M 394.512397 144.213771 
L 335.448101 55.431453 
" style="fill:none;stroke:#000000;"/>
    <path clip-path="url(#pc020202424)" d="M 394.512397 144.213771 
L 234.659619 25.399843 
" style="fill:none;stroke:#000000;"/>
    <path clip-path="url(#pc020202424)" d="M 390.611477 119.374896 
L 41.388534 169.052657 
" style="fill:none;stroke:#000000;"/>
    <path clip-path="url(#pc020202424)" d="M 379.079184 95.621601 
L 96.551878 55.43146 
" style="fill:none;stroke:#000000;"/>
    <path clip-path="url(#pc020202424)" d="M 379.079184 95.621601 
L 71.580425 73.992024 
" style="fill:none;stroke:#000000;"/>
    <path clip-path="url(#pc020202424)" d="M 379.079184 95.621601 
L 197.340396 263.027698 
" style="fill:none;stroke:#000000;"/>
    <path clip-path="url(#pc020202424)" d="M 379.079184 95.621601 
L 271.16336 30.592582 
" style="fill:none;stroke:#000000;"/>
    <path clip-path="url(#pc020202424)" d="M 360.419564 73.992017 
L 52.920816 192.805951 
" style="fill:none;stroke:#000000;"/>
    <path clip-path="url(#pc020202424)" d="M 360.419564 73.992017 
L 271.16336 30.592582 
" style="fill:none;stroke:#000000;"/>
    <path clip-path="url(#pc020202424)" d="M 360.419564 73.992017 
L 234.659619 25.399843 
" style="fill:none;stroke:#000000;"/>
    <path clip-path="url(#pc020202424)" d="M 335.448101 55.431453 
L 379.079205 192.805923 
" style="fill:none;stroke:#000000;"/>
    <path clip-path="url(#pc020202424)" d="M 335.448101 55.431453 
L 41.388523 119.374906 
" style="fill:none;stroke:#000000;"/>
    <path clip-path="url(#pc020202424)" d="M 305.256193 40.751109 
L 160.836618 257.834953 
" style="fill:none;stroke:#000000;"/>
    <path clip-path="url(#pc020202424)" d="M 305.256193 40.751109 
L 234.659619 25.399843 
" style="fill:none;stroke:#000000;"/>
    <path clip-path="url(#pc020202424)" d="M 271.16336 30.592582 
L 71.580425 73.992024 
" style="fill:none;stroke:#000000;"/>
    <path clip-path="url(#pc020202424)" d="M 234.659619 25.399843 
L 390.611466 169.052653 
" style="fill:none;stroke:#000000;"/>
    <path clip-path="url(#pc020202424)" d="M 197.340365 25.399843 
L 52.920816 192.805951 
" style="fill:none;stroke:#000000;"/>
    <path clip-path="url(#pc020202424)" d="M 197.340365 25.399843 
L 335.448133 232.996074 
" style="fill:none;stroke:#000000;"/>
    <path clip-path="url(#pc020202424)" d="M 197.340365 25.399843 
L 41.388523 119.374906 
" style="fill:none;stroke:#000000;"/>
    <path clip-path="url(#pc020202424)" d="M 160.836629 30.592589 
L 160.836618 257.834953 
" style="fill:none;stroke:#000000;"/>
    <path clip-path="url(#pc020202424)" d="M 160.836629 30.592589 
L 41.388523 119.374906 
" style="fill:none;stroke:#000000;"/>
    <path clip-path="url(#pc020202424)" d="M 160.836629 30.592589 
L 390.611466 169.052653 
" style="fill:none;stroke:#000000;"/>
    <path clip-path="url(#pc020202424)" d="M 126.743791 40.751116 
L 41.388534 169.052657 
" style="fill:none;stroke:#000000;"/>
    <path clip-path="url(#pc020202424)" d="M 126.743791 40.751116 
L 96.551878 55.43146 
" style="fill:none;stroke:#000000;"/>
    <path clip-path="url(#pc020202424)" d="M 96.551878 55.43146 
L 271.163387 257.834953 
" style="fill:none;stroke:#000000;"/>
    <path clip-path="url(#pc020202424)" d="M 96.551878 55.43146 
L 71.580425 73.992024 
" style="fill:none;stroke:#000000;"/>
    <path clip-path="url(#pc020202424)" d="M 96.551878 55.43146 
L 197.340396 263.027698 
" style="fill:none;stroke:#000000;"/>
    <path clip-path="url(#pc020202424)" d="M 52.920805 95.621608 
L 52.920816 192.805951 
" style="fill:none;stroke:#000000;"/>
    <path clip-path="url(#pc020202424)" d="M 52.920805 95.621608 
L 41.388523 119.374906 
" style="fill:none;stroke:#000000;"/>
    <path clip-path="url(#pc020202424)" d="M 41.388523 119.374906 
L 41.388534 169.052657 
" style="fill:none;stroke:#000000;"/>
    <path clip-path="url(#pc020202424)" d="M 41.388523 119.374906 
L 96.55191 232.996088 
" style="fill:none;stroke:#000000;"/>
    <path clip-path="url(#pc020202424)" d="M 41.388523 119.374906 
L 271.163387 257.834953 
" style="fill:none;stroke:#000000;"/>
    <path clip-path="url(#pc020202424)" d="M 37.487603 144.213781 
L 360.419553 214.435532 
" style="fill:none;stroke:#000000;"/>
    <path clip-path="url(#pc020202424)" d="M 37.487603 144.213781 
L 234.659608 263.027698 
" style="fill:none;stroke:#000000;"/>
    <path clip-path="url(#pc020202424)" d="M 52.920816 192.805951 
L 335.448133 232.996074 
" style="fill:none;stroke:#000000;"/>
    <path clip-path="url(#pc020202424)" d="M 52.920816 192.805951 
L 71.580447 214.435539 
" style="fill:none;stroke:#000000;"/>
    <path clip-path="url(#pc020202424)" d="M 71.580447 214.435539 
L 305.256182 247.676433 
" style="fill:none;stroke:#000000;"/>
    <path clip-path="url(#pc020202424)" d="M 96.55191 232.996088 
L 271.163387 257.834953 
" style="fill:none;stroke:#000000;"/>
    <path clip-path="url(#pc020202424)" d="M 234.659608 263.027698 
L 271.163387 257.834953 
" style="fill:none;stroke:#000000;"/>
    <path clip-path="url(#pc020202424)" d="M 271.163387 257.834953 
L 379.079205 192.805923 
" style="fill:none;stroke:#000000;"/>
    <path clip-path="url(#pc020202424)" d="M 305.256182 247.676433 
L 390.611466 169.052653 
" style="fill:none;stroke:#000000;"/>
   </g>
   <g id="PathCollection_1">
    <defs>
     <path d="M 0 8.660254 
C 2.296726 8.660254 4.499694 7.747755 6.123724 6.123724 
C 7.747755 4.499694 8.660254 2.296726 8.660254 0 
C 8.660254 -2.296726 7.747755 -4.499694 6.123724 -6.123724 
C 4.499694 -7.747755 2.296726 -8.660254 0 -8.660254 
C -2.296726 -8.660254 -4.499694 -7.747755 -6.123724 -6.123724 
C -7.747755 -4.499694 -8.660254 -2.296726 -8.660254 0 
C -8.660254 2.296726 -7.747755 4.499694 -6.123724 6.123724 
C -4.499694 7.747755 -2.296726 8.660254 0 8.660254 
z
" id="mafbacc2b29" style="stroke:#ff0000;"/>
    </defs>
    <g clip-path="url(#pc020202424)">
     <use style="fill:#ff0000;stroke:#ff0000;" x="394.512393" xlink:href="#mafbacc2b29" y="144.21377"/>
     <use style="fill:#ff0000;stroke:#ff0000;" x="385.775379" xlink:href="#mafbacc2b29" y="107.296009"/>
     <use style="fill:#ff0000;stroke:#ff0000;" x="360.419561" xlink:href="#mafbacc2b29" y="73.992018"/>
     <use style="fill:#ff0000;stroke:#ff0000;" x="320.92695" xlink:href="#mafbacc2b29" y="47.561817"/>
     <use style="fill:#ff0000;stroke:#ff0000;" x="271.163359" xlink:href="#mafbacc2b29" y="30.592583"/>
     <use style="fill:#ff0000;stroke:#ff0000;" x="215.999992" xlink:href="#mafbacc2b29" y="24.745387"/>
     <use style="fill:#ff0000;stroke:#ff0000;" x="160.836629" xlink:href="#mafbacc2b29" y="30.59259"/>
     <use style="fill:#ff0000;stroke:#ff0000;" x="111.073059" xlink:href="#mafbacc2b29" y="47.561817"/>
     <use style="fill:#ff0000;stroke:#ff0000;" x="71.580427" xlink:href="#mafbacc2b29" y="73.992025"/>
     <use style="fill:#ff0000;stroke:#ff0000;" x="46.224631" xlink:href="#mafbacc2b29" y="107.296005"/>
     <use style="fill:#ff0000;stroke:#ff0000;" x="37.487606" xlink:href="#mafbacc2b29" y="144.213781"/>
     <use style="fill:#ff0000;stroke:#ff0000;" x="46.22462" xlink:href="#mafbacc2b29" y="181.131529"/>
     <use style="fill:#ff0000;stroke:#ff0000;" x="71.580449" xlink:href="#mafbacc2b29" y="214.435538"/>
     <use style="fill:#ff0000;stroke:#ff0000;" x="111.073081" xlink:href="#mafbacc2b29" y="240.865738"/>
     <use style="fill:#ff0000;stroke:#ff0000;" x="160.836619" xlink:href="#mafbacc2b29" y="257.834951"/>
     <use style="fill:#ff0000;stroke:#ff0000;" x="216.000002" xlink:href="#mafbacc2b29" y="263.682154"/>
     <use style="fill:#ff0000;stroke:#ff0000;" x="271.163386" xlink:href="#mafbacc2b29" y="257.834951"/>
     <use style="fill:#ff0000;stroke:#ff0000;" x="320.926919" xlink:href="#mafbacc2b29" y="240.865738"/>
     <use style="fill:#ff0000;stroke:#ff0000;" x="360.419551" xlink:href="#mafbacc2b29" y="214.43553"/>
     <use style="fill:#ff0000;stroke:#ff0000;" x="385.775379" xlink:href="#mafbacc2b29" y="181.131525"/>
    </g>
   </g>
   <g id="PathCollection_2">
    <g clip-path="url(#pc020202424)">
     <use style="fill:#ff0000;stroke:#ff0000;" x="394.512397" xlink:href="#mafbacc2b29" y="144.213771"/>
     <use style="fill:#ff0000;stroke:#ff0000;" x="390.611477" xlink:href="#mafbacc2b29" y="119.374896"/>
     <use style="fill:#ff0000;stroke:#ff0000;" x="379.079184" xlink:href="#mafbacc2b29" y="95.621601"/>
     <use style="fill:#ff0000;stroke:#ff0000;" x="360.419564" xlink:href="#mafbacc2b29" y="73.992017"/>
     <use style="fill:#ff0000;stroke:#ff0000;" x="335.448101" xlink:href="#mafbacc2b29" y="55.431453"/>
     <use style="fill:#ff0000;stroke:#ff0000;" x="305.256193" xlink:href="#mafbacc2b29" y="40.751109"/>
     <use style="fill:#ff0000;stroke:#ff0000;" x="271.16336" xlink:href="#mafbacc2b29" y="30.592582"/>
     <use style="fill:#ff0000;stroke:#ff0000;" x="234.659619" xlink:href="#mafbacc2b29" y="25.399843"/>
     <use style="fill:#ff0000;stroke:#ff0000;" x="197.340365" xlink:href="#mafbacc2b29" y="25.399843"/>
     <use style="fill:#ff0000;stroke:#ff0000;" x="160.836629" xlink:href="#mafbacc2b29" y="30.592589"/>
     <use style="fill:#ff0000;stroke:#ff0000;" x="126.743791" xlink:href="#mafbacc2b29" y="40.751116"/>
     <use style="fill:#ff0000;stroke:#ff0000;" x="96.551878" xlink:href="#mafbacc2b29" y="55.43146"/>
     <use style="fill:#ff0000;stroke:#ff0000;" x="71.580425" xlink:href="#mafbacc2b29" y="73.992024"/>
     <use style="fill:#ff0000;stroke:#ff0000;" x="52.920805" xlink:href="#mafbacc2b29" y="95.621608"/>
     <use style="fill:#ff0000;stroke:#ff0000;" x="41.388523" xlink:href="#mafbacc2b29" y="119.374906"/>
     <use style="fill:#ff0000;stroke:#ff0000;" x="37.487603" xlink:href="#mafbacc2b29" y="144.213781"/>
     <use style="fill:#ff0000;stroke:#ff0000;" x="41.388534" xlink:href="#mafbacc2b29" y="169.052657"/>
     <use style="fill:#ff0000;stroke:#ff0000;" x="52.920816" xlink:href="#mafbacc2b29" y="192.805951"/>
     <use style="fill:#ff0000;stroke:#ff0000;" x="71.580447" xlink:href="#mafbacc2b29" y="214.435539"/>
     <use style="fill:#ff0000;stroke:#ff0000;" x="96.55191" xlink:href="#mafbacc2b29" y="232.996088"/>
     <use style="fill:#ff0000;stroke:#ff0000;" x="126.743818" xlink:href="#mafbacc2b29" y="247.676433"/>
     <use style="fill:#ff0000;stroke:#ff0000;" x="160.836618" xlink:href="#mafbacc2b29" y="257.834953"/>
     <use style="fill:#ff0000;stroke:#ff0000;" x="197.340396" xlink:href="#mafbacc2b29" y="263.027698"/>
     <use style="fill:#ff0000;stroke:#ff0000;" x="234.659608" xlink:href="#mafbacc2b29" y="263.027698"/>
     <use style="fill:#ff0000;stroke:#ff0000;" x="271.163387" xlink:href="#mafbacc2b29" y="257.834953"/>
     <use style="fill:#ff0000;stroke:#ff0000;" x="305.256182" xlink:href="#mafbacc2b29" y="247.676433"/>
     <use style="fill:#ff0000;stroke:#ff0000;" x="335.448133" xlink:href="#mafbacc2b29" y="232.996074"/>
     <use style="fill:#ff0000;stroke:#ff0000;" x="360.419553" xlink:href="#mafbacc2b29" y="214.435532"/>
     <use style="fill:#ff0000;stroke:#ff0000;" x="379.079205" xlink:href="#mafbacc2b29" y="192.805923"/>
     <use style="fill:#ff0000;stroke:#ff0000;" x="390.611466" xlink:href="#mafbacc2b29" y="169.052653"/>
    </g>
   </g>
   <g id="text_1">
    <g clip-path="url(#pc020202424)">
     <!-- 0 -->
     <defs>
      <path d="M 46 36.53125 
Q 46 50.203125 43.4375 55.78125 
Q 40.875 61.375 34.8125 61.375 
Q 28.765625 61.375 26.171875 55.78125 
Q 23.578125 50.203125 23.578125 36.53125 
Q 23.578125 22.703125 26.171875 17.03125 
Q 28.765625 11.375 34.8125 11.375 
Q 40.828125 11.375 43.40625 17.03125 
Q 46 22.703125 46 36.53125 
z
M 64.796875 36.375 
Q 64.796875 18.265625 56.984375 8.421875 
Q 49.171875 -1.421875 34.8125 -1.421875 
Q 20.40625 -1.421875 12.59375 8.421875 
Q 4.78125 18.265625 4.78125 36.375 
Q 4.78125 54.546875 12.59375 64.375 
Q 20.40625 74.21875 34.8125 74.21875 
Q 49.171875 74.21875 56.984375 64.375 
Q 64.796875 54.546875 64.796875 36.375 
z
" id="DejaVuSans-Bold-30"/>
     </defs>
     <g transform="translate(390.337706 147.52502)scale(0.12 -0.12)">
      <use xlink:href="#DejaVuSans-Bold-30"/>
     </g>
    </g>
   </g>
   <g id="text_2">
    <g clip-path="url(#pc020202424)">
     <!-- 1 -->
     <defs>
      <path d="M 11.71875 12.984375 
L 28.328125 12.984375 
L 28.328125 60.109375 
L 11.28125 56.59375 
L 11.28125 69.390625 
L 28.21875 72.90625 
L 46.09375 72.90625 
L 46.09375 12.984375 
L 62.703125 12.984375 
L 62.703125 0 
L 11.71875 0 
z
" id="DejaVuSans-Bold-31"/>
     </defs>
     <g transform="translate(381.600692 110.607259)scale(0.12 -0.12)">
      <use xlink:href="#DejaVuSans-Bold-31"/>
     </g>
    </g>
   </g>
   <g id="text_3">
    <g clip-path="url(#pc020202424)">
     <!-- 2 -->
     <defs>
      <path d="M 28.8125 13.8125 
L 60.890625 13.8125 
L 60.890625 0 
L 7.90625 0 
L 7.90625 13.8125 
L 34.515625 37.3125 
Q 38.09375 40.53125 39.796875 43.609375 
Q 41.5 46.6875 41.5 50 
Q 41.5 55.125 38.0625 58.25 
Q 34.625 61.375 28.90625 61.375 
Q 24.515625 61.375 19.28125 59.5 
Q 14.0625 57.625 8.109375 53.90625 
L 8.109375 69.921875 
Q 14.453125 72.015625 20.65625 73.109375 
Q 26.859375 74.21875 32.8125 74.21875 
Q 45.90625 74.21875 53.15625 68.453125 
Q 60.40625 62.703125 60.40625 52.390625 
Q 60.40625 46.4375 57.328125 41.28125 
Q 54.25 36.140625 44.390625 27.484375 
z
" id="DejaVuSans-Bold-32"/>
     </defs>
     <g transform="translate(356.244874 77.303268)scale(0.12 -0.12)">
      <use xlink:href="#DejaVuSans-Bold-32"/>
     </g>
    </g>
   </g>
   <g id="text_4">
    <g clip-path="url(#pc020202424)">
     <!-- 3 -->
     <defs>
      <path d="M 46.578125 39.3125 
Q 53.953125 37.40625 57.78125 32.6875 
Q 61.625 27.984375 61.625 20.703125 
Q 61.625 9.859375 53.3125 4.21875 
Q 45.015625 -1.421875 29.109375 -1.421875 
Q 23.484375 -1.421875 17.84375 -0.515625 
Q 12.203125 0.390625 6.6875 2.203125 
L 6.6875 16.703125 
Q 11.96875 14.0625 17.15625 12.71875 
Q 22.359375 11.375 27.390625 11.375 
Q 34.859375 11.375 38.84375 13.953125 
Q 42.828125 16.546875 42.828125 21.390625 
Q 42.828125 26.375 38.75 28.9375 
Q 34.671875 31.5 26.703125 31.5 
L 19.1875 31.5 
L 19.1875 43.609375 
L 27.09375 43.609375 
Q 34.1875 43.609375 37.640625 45.828125 
Q 41.109375 48.046875 41.109375 52.59375 
Q 41.109375 56.78125 37.734375 59.078125 
Q 34.375 61.375 28.21875 61.375 
Q 23.6875 61.375 19.046875 60.34375 
Q 14.40625 59.328125 9.8125 57.328125 
L 9.8125 71.09375 
Q 15.375 72.65625 20.84375 73.4375 
Q 26.3125 74.21875 31.59375 74.21875 
Q 45.796875 74.21875 52.84375 69.546875 
Q 59.90625 64.890625 59.90625 55.515625 
Q 59.90625 49.125 56.53125 45.046875 
Q 53.171875 40.96875 46.578125 39.3125 
z
" id="DejaVuSans-Bold-33"/>
     </defs>
     <g transform="translate(316.752263 50.873067)scale(0.12 -0.12)">
      <use xlink:href="#DejaVuSans-Bold-33"/>
     </g>
    </g>
   </g>
   <g id="text_5">
    <g clip-path="url(#pc020202424)">
     <!-- 4 -->
     <defs>
      <path d="M 36.8125 57.421875 
L 16.21875 26.90625 
L 36.8125 26.90625 
z
M 33.6875 72.90625 
L 54.59375 72.90625 
L 54.59375 26.90625 
L 64.984375 26.90625 
L 64.984375 13.28125 
L 54.59375 13.28125 
L 54.59375 0 
L 36.8125 0 
L 36.8125 13.28125 
L 4.5 13.28125 
L 4.5 29.390625 
z
" id="DejaVuSans-Bold-34"/>
     </defs>
     <g transform="translate(266.988672 33.903833)scale(0.12 -0.12)">
      <use xlink:href="#DejaVuSans-Bold-34"/>
     </g>
    </g>
   </g>
   <g id="text_6">
    <g clip-path="url(#pc020202424)">
     <!-- 5 -->
     <defs>
      <path d="M 10.59375 72.90625 
L 57.328125 72.90625 
L 57.328125 59.078125 
L 25.59375 59.078125 
L 25.59375 47.796875 
Q 27.734375 48.390625 29.90625 48.703125 
Q 32.078125 49.03125 34.421875 49.03125 
Q 47.75 49.03125 55.171875 42.359375 
Q 62.59375 35.6875 62.59375 23.78125 
Q 62.59375 11.96875 54.515625 5.265625 
Q 46.4375 -1.421875 32.078125 -1.421875 
Q 25.875 -1.421875 19.796875 -0.21875 
Q 13.71875 0.984375 7.71875 3.421875 
L 7.71875 18.21875 
Q 13.671875 14.796875 19.015625 13.078125 
Q 24.359375 11.375 29.109375 11.375 
Q 35.9375 11.375 39.859375 14.71875 
Q 43.796875 18.0625 43.796875 23.78125 
Q 43.796875 29.546875 39.859375 32.859375 
Q 35.9375 36.1875 29.109375 36.1875 
Q 25.046875 36.1875 20.453125 35.125 
Q 15.875 34.078125 10.59375 31.890625 
z
" id="DejaVuSans-Bold-35"/>
     </defs>
     <g transform="translate(211.825304 28.056637)scale(0.12 -0.12)">
      <use xlink:href="#DejaVuSans-Bold-35"/>
     </g>
    </g>
   </g>
   <g id="text_7">
    <g clip-path="url(#pc020202424)">
     <!-- 6 -->
     <defs>
      <path d="M 36.1875 35.984375 
Q 31.25 35.984375 28.78125 32.78125 
Q 26.3125 29.59375 26.3125 23.1875 
Q 26.3125 16.796875 28.78125 13.59375 
Q 31.25 10.40625 36.1875 10.40625 
Q 41.15625 10.40625 43.625 13.59375 
Q 46.09375 16.796875 46.09375 23.1875 
Q 46.09375 29.59375 43.625 32.78125 
Q 41.15625 35.984375 36.1875 35.984375 
z
M 59.421875 71 
L 59.421875 57.515625 
Q 54.78125 59.71875 50.671875 60.765625 
Q 46.578125 61.8125 42.671875 61.8125 
Q 34.28125 61.8125 29.59375 57.140625 
Q 24.90625 52.484375 24.125 43.3125 
Q 27.34375 45.703125 31.09375 46.890625 
Q 34.859375 48.09375 39.3125 48.09375 
Q 50.484375 48.09375 57.34375 41.546875 
Q 64.203125 35.015625 64.203125 24.421875 
Q 64.203125 12.703125 56.53125 5.640625 
Q 48.875 -1.421875 35.984375 -1.421875 
Q 21.78125 -1.421875 13.984375 8.171875 
Q 6.203125 17.78125 6.203125 35.40625 
Q 6.203125 53.46875 15.3125 63.796875 
Q 24.421875 74.125 40.28125 74.125 
Q 45.3125 74.125 50.046875 73.34375 
Q 54.78125 72.5625 59.421875 71 
z
" id="DejaVuSans-Bold-36"/>
     </defs>
     <g transform="translate(156.661942 33.90384)scale(0.12 -0.12)">
      <use xlink:href="#DejaVuSans-Bold-36"/>
     </g>
    </g>
   </g>
   <g id="text_8">
    <g clip-path="url(#pc020202424)">
     <!-- 7 -->
     <defs>
      <path d="M 6.6875 72.90625 
L 61.625 72.90625 
L 61.625 62.3125 
L 33.203125 0 
L 14.890625 0 
L 41.796875 59.078125 
L 6.6875 59.078125 
z
" id="DejaVuSans-Bold-37"/>
     </defs>
     <g transform="translate(106.898372 50.873067)scale(0.12 -0.12)">
      <use xlink:href="#DejaVuSans-Bold-37"/>
     </g>
    </g>
   </g>
   <g id="text_9">
    <g clip-path="url(#pc020202424)">
     <!-- 8 -->
     <defs>
      <path d="M 34.8125 32.625 
Q 29.546875 32.625 26.703125 29.734375 
Q 23.875 26.859375 23.875 21.484375 
Q 23.875 16.109375 26.703125 13.25 
Q 29.546875 10.40625 34.8125 10.40625 
Q 40.046875 10.40625 42.828125 13.25 
Q 45.609375 16.109375 45.609375 21.484375 
Q 45.609375 26.90625 42.828125 29.765625 
Q 40.046875 32.625 34.8125 32.625 
z
M 21.09375 38.8125 
Q 14.453125 40.828125 11.078125 44.96875 
Q 7.71875 49.125 7.71875 55.328125 
Q 7.71875 64.546875 14.59375 69.375 
Q 21.484375 74.21875 34.8125 74.21875 
Q 48.046875 74.21875 54.921875 69.40625 
Q 61.8125 64.59375 61.8125 55.328125 
Q 61.8125 49.125 58.421875 44.96875 
Q 55.03125 40.828125 48.390625 38.8125 
Q 55.8125 36.765625 59.59375 32.15625 
Q 63.375 27.546875 63.375 20.515625 
Q 63.375 9.671875 56.171875 4.125 
Q 48.96875 -1.421875 34.8125 -1.421875 
Q 20.609375 -1.421875 13.359375 4.125 
Q 6.109375 9.671875 6.109375 20.515625 
Q 6.109375 27.546875 9.890625 32.15625 
Q 13.671875 36.765625 21.09375 38.8125 
z
M 25.484375 53.421875 
Q 25.484375 49.078125 27.90625 46.734375 
Q 30.328125 44.390625 34.8125 44.390625 
Q 39.203125 44.390625 41.59375 46.734375 
Q 44 49.078125 44 53.421875 
Q 44 57.765625 41.59375 60.078125 
Q 39.203125 62.40625 34.8125 62.40625 
Q 30.328125 62.40625 27.90625 60.0625 
Q 25.484375 57.71875 25.484375 53.421875 
z
" id="DejaVuSans-Bold-38"/>
     </defs>
     <g transform="translate(67.40574 77.303275)scale(0.12 -0.12)">
      <use xlink:href="#DejaVuSans-Bold-38"/>
     </g>
    </g>
   </g>
   <g id="text_10">
    <g clip-path="url(#pc020202424)">
     <!-- 9 -->
     <defs>
      <path d="M 10.015625 1.609375 
L 10.015625 15.09375 
Q 14.5 12.984375 18.59375 11.9375 
Q 22.703125 10.890625 26.703125 10.890625 
Q 35.109375 10.890625 39.796875 15.546875 
Q 44.484375 20.21875 45.3125 29.390625 
Q 42 26.953125 38.234375 25.734375 
Q 34.46875 24.515625 30.078125 24.515625 
Q 18.890625 24.515625 12.03125 31.03125 
Q 5.171875 37.546875 5.171875 48.1875 
Q 5.171875 59.96875 12.8125 67.046875 
Q 20.453125 74.125 33.296875 74.125 
Q 47.5625 74.125 55.375 64.5 
Q 63.1875 54.890625 63.1875 37.3125 
Q 63.1875 19.234375 54.046875 8.90625 
Q 44.921875 -1.421875 29 -1.421875 
Q 23.875 -1.421875 19.1875 -0.65625 
Q 14.5 0.09375 10.015625 1.609375 
z
M 33.203125 36.71875 
Q 38.140625 36.71875 40.625 39.90625 
Q 43.109375 43.109375 43.109375 49.515625 
Q 43.109375 55.859375 40.625 59.078125 
Q 38.140625 62.3125 33.203125 62.3125 
Q 28.265625 62.3125 25.78125 59.078125 
Q 23.296875 55.859375 23.296875 49.515625 
Q 23.296875 43.109375 25.78125 39.90625 
Q 28.265625 36.71875 33.203125 36.71875 
z
" id="DejaVuSans-Bold-39"/>
     </defs>
     <g transform="translate(42.049943 110.607255)scale(0.12 -0.12)">
      <use xlink:href="#DejaVuSans-Bold-39"/>
     </g>
    </g>
   </g>
   <g id="text_11">
    <g clip-path="url(#pc020202424)">
     <!-- 10 -->
     <g transform="translate(29.138231 147.525031)scale(0.12 -0.12)">
      <use xlink:href="#DejaVuSans-Bold-31"/>
      <use x="69.580078" xlink:href="#DejaVuSans-Bold-30"/>
     </g>
    </g>
   </g>
   <g id="text_12">
    <g clip-path="url(#pc020202424)">
     <!-- 11 -->
     <g transform="translate(37.875245 184.442779)scale(0.12 -0.12)">
      <use xlink:href="#DejaVuSans-Bold-31"/>
      <use x="69.580078" xlink:href="#DejaVuSans-Bold-31"/>
     </g>
    </g>
   </g>
   <g id="text_13">
    <g clip-path="url(#pc020202424)">
     <!-- 12 -->
     <g transform="translate(63.231074 217.746788)scale(0.12 -0.12)">
      <use xlink:href="#DejaVuSans-Bold-31"/>
      <use x="69.580078" xlink:href="#DejaVuSans-Bold-32"/>
     </g>
    </g>
   </g>
   <g id="text_14">
    <g clip-path="url(#pc020202424)">
     <!-- 13 -->
     <g transform="translate(102.723706 244.176988)scale(0.12 -0.12)">
      <use xlink:href="#DejaVuSans-Bold-31"/>
      <use x="69.580078" xlink:href="#DejaVuSans-Bold-33"/>
     </g>
    </g>
   </g>
   <g id="text_15">
    <g clip-path="url(#pc020202424)">
     <!-- 14 -->
     <g transform="translate(152.487244 261.146201)scale(0.12 -0.12)">
      <use xlink:href="#DejaVuSans-Bold-31"/>
      <use x="69.580078" xlink:href="#DejaVuSans-Bold-34"/>
     </g>
    </g>
   </g>
   <g id="text_16">
    <g clip-path="url(#pc020202424)">
     <!-- 15 -->
     <g transform="translate(207.650627 266.993404)scale(0.12 -0.12)">
      <use xlink:href="#DejaVuSans-Bold-31"/>
      <use x="69.580078" xlink:href="#DejaVuSans-Bold-35"/>
     </g>
    </g>
   </g>
   <g id="text_17">
    <g clip-path="url(#pc020202424)">
     <!-- 16 -->
     <g transform="translate(262.814011 261.146201)scale(0.12 -0.12)">
      <use xlink:href="#DejaVuSans-Bold-31"/>
      <use x="69.580078" xlink:href="#DejaVuSans-Bold-36"/>
     </g>
    </g>
   </g>
   <g id="text_18">
    <g clip-path="url(#pc020202424)">
     <!-- 17 -->
     <g transform="translate(312.577544 244.176988)scale(0.12 -0.12)">
      <use xlink:href="#DejaVuSans-Bold-31"/>
      <use x="69.580078" xlink:href="#DejaVuSans-Bold-37"/>
     </g>
    </g>
   </g>
   <g id="text_19">
    <g clip-path="url(#pc020202424)">
     <!-- 18 -->
     <g transform="translate(352.070176 217.74678)scale(0.12 -0.12)">
      <use xlink:href="#DejaVuSans-Bold-31"/>
      <use x="69.580078" xlink:href="#DejaVuSans-Bold-38"/>
     </g>
    </g>
   </g>
   <g id="text_20">
    <g clip-path="url(#pc020202424)">
     <!-- 19 -->
     <g transform="translate(377.426004 184.442775)scale(0.12 -0.12)">
      <use xlink:href="#DejaVuSans-Bold-31"/>
      <use x="69.580078" xlink:href="#DejaVuSans-Bold-39"/>
     </g>
    </g>
   </g>
   <g id="text_21">
    <g clip-path="url(#pc020202424)">
     <!-- 0 -->
     <g transform="translate(390.337709 147.525021)scale(0.12 -0.12)">
      <use xlink:href="#DejaVuSans-Bold-30"/>
     </g>
    </g>
   </g>
   <g id="text_22">
    <g clip-path="url(#pc020202424)">
     <!-- 1 -->
     <g transform="translate(386.43679 122.686146)scale(0.12 -0.12)">
      <use xlink:href="#DejaVuSans-Bold-31"/>
     </g>
    </g>
   </g>
   <g id="text_23">
    <g clip-path="url(#pc020202424)">
     <!-- 2 -->
     <g transform="translate(374.904497 98.932851)scale(0.12 -0.12)">
      <use xlink:href="#DejaVuSans-Bold-32"/>
     </g>
    </g>
   </g>
   <g id="text_24">
    <g clip-path="url(#pc020202424)">
     <!-- 3 -->
     <g transform="translate(356.244877 77.303267)scale(0.12 -0.12)">
      <use xlink:href="#DejaVuSans-Bold-33"/>
     </g>
    </g>
   </g>
   <g id="text_25">
    <g clip-path="url(#pc020202424)">
     <!-- 4 -->
     <g transform="translate(331.273413 58.742703)scale(0.12 -0.12)">
      <use xlink:href="#DejaVuSans-Bold-34"/>
     </g>
    </g>
   </g>
   <g id="text_26">
    <g clip-path="url(#pc020202424)">
     <!-- 5 -->
     <g transform="translate(301.081506 44.062359)scale(0.12 -0.12)">
      <use xlink:href="#DejaVuSans-Bold-35"/>
     </g>
    </g>
   </g>
   <g id="text_27">
    <g clip-path="url(#pc020202424)">
     <!-- 6 -->
     <g transform="translate(266.988673 33.903832)scale(0.12 -0.12)">
      <use xlink:href="#DejaVuSans-Bold-36"/>
     </g>
    </g>
   </g>
   <g id="text_28">
    <g clip-path="url(#pc020202424)">
     <!-- 7 -->
     <g transform="translate(230.484931 28.711093)scale(0.12 -0.12)">
      <use xlink:href="#DejaVuSans-Bold-37"/>
     </g>
    </g>
   </g>
   <g id="text_29">
    <g clip-path="url(#pc020202424)">
     <!-- 8 -->
     <g transform="translate(193.165678 28.711093)scale(0.12 -0.12)">
      <use xlink:href="#DejaVuSans-Bold-38"/>
     </g>
    </g>
   </g>
   <g id="text_30">
    <g clip-path="url(#pc020202424)">
     <!-- 9 -->
     <g transform="translate(156.661941 33.903839)scale(0.12 -0.12)">
      <use xlink:href="#DejaVuSans-Bold-39"/>
     </g>
    </g>
   </g>
   <g id="text_31">
    <g clip-path="url(#pc020202424)">
     <!-- 10 -->
     <g transform="translate(118.394416 44.062366)scale(0.12 -0.12)">
      <use xlink:href="#DejaVuSans-Bold-31"/>
      <use x="69.580078" xlink:href="#DejaVuSans-Bold-30"/>
     </g>
    </g>
   </g>
   <g id="text_32">
    <g clip-path="url(#pc020202424)">
     <!-- 11 -->
     <g transform="translate(88.202503 58.74271)scale(0.12 -0.12)">
      <use xlink:href="#DejaVuSans-Bold-31"/>
      <use x="69.580078" xlink:href="#DejaVuSans-Bold-31"/>
     </g>
    </g>
   </g>
   <g id="text_33">
    <g clip-path="url(#pc020202424)">
     <!-- 12 -->
     <g transform="translate(63.23105 77.303274)scale(0.12 -0.12)">
      <use xlink:href="#DejaVuSans-Bold-31"/>
      <use x="69.580078" xlink:href="#DejaVuSans-Bold-32"/>
     </g>
    </g>
   </g>
   <g id="text_34">
    <g clip-path="url(#pc020202424)">
     <!-- 13 -->
     <g transform="translate(44.57143 98.932858)scale(0.12 -0.12)">
      <use xlink:href="#DejaVuSans-Bold-31"/>
      <use x="69.580078" xlink:href="#DejaVuSans-Bold-33"/>
     </g>
    </g>
   </g>
   <g id="text_35">
    <g clip-path="url(#pc020202424)">
     <!-- 14 -->
     <g transform="translate(33.039148 122.686156)scale(0.12 -0.12)">
      <use xlink:href="#DejaVuSans-Bold-31"/>
      <use x="69.580078" xlink:href="#DejaVuSans-Bold-34"/>
     </g>
    </g>
   </g>
   <g id="text_36">
    <g clip-path="url(#pc020202424)">
     <!-- 15 -->
     <g transform="translate(29.138228 147.525031)scale(0.12 -0.12)">
      <use xlink:href="#DejaVuSans-Bold-31"/>
      <use x="69.580078" xlink:href="#DejaVuSans-Bold-35"/>
     </g>
    </g>
   </g>
   <g id="text_37">
    <g clip-path="url(#pc020202424)">
     <!-- 16 -->
     <g transform="translate(33.039159 172.363907)scale(0.12 -0.12)">
      <use xlink:href="#DejaVuSans-Bold-31"/>
      <use x="69.580078" xlink:href="#DejaVuSans-Bold-36"/>
     </g>
    </g>
   </g>
   <g id="text_38">
    <g clip-path="url(#pc020202424)">
     <!-- 17 -->
     <g transform="translate(44.571441 196.117201)scale(0.12 -0.12)">
      <use xlink:href="#DejaVuSans-Bold-31"/>
      <use x="69.580078" xlink:href="#DejaVuSans-Bold-37"/>
     </g>
    </g>
   </g>
   <g id="text_39">
    <g clip-path="url(#pc020202424)">
     <!-- 18 -->
     <g transform="translate(63.231072 217.746789)scale(0.12 -0.12)">
      <use xlink:href="#DejaVuSans-Bold-31"/>
      <use x="69.580078" xlink:href="#DejaVuSans-Bold-38"/>
     </g>
    </g>
   </g>
   <g id="text_40">
    <g clip-path="url(#pc020202424)">
     <!-- 19 -->
     <g transform="translate(88.202535 236.307338)scale(0.12 -0.12)">
      <use xlink:href="#DejaVuSans-Bold-31"/>
      <use x="69.580078" xlink:href="#DejaVuSans-Bold-39"/>
     </g>
    </g>
   </g>
   <g id="text_41">
    <g clip-path="url(#pc020202424)">
     <!-- 20 -->
     <g transform="translate(118.394443 250.987683)scale(0.12 -0.12)">
      <use xlink:href="#DejaVuSans-Bold-32"/>
      <use x="69.580078" xlink:href="#DejaVuSans-Bold-30"/>
     </g>
    </g>
   </g>
   <g id="text_42">
    <g clip-path="url(#pc020202424)">
     <!-- 21 -->
     <g transform="translate(152.487243 261.146203)scale(0.12 -0.12)">
      <use xlink:href="#DejaVuSans-Bold-32"/>
      <use x="69.580078" xlink:href="#DejaVuSans-Bold-31"/>
     </g>
    </g>
   </g>
   <g id="text_43">
    <g clip-path="url(#pc020202424)">
     <!-- 22 -->
     <g transform="translate(188.991021 266.338948)scale(0.12 -0.12)">
      <use xlink:href="#DejaVuSans-Bold-32"/>
      <use x="69.580078" xlink:href="#DejaVuSans-Bold-32"/>
     </g>
    </g>
   </g>
   <g id="text_44">
    <g clip-path="url(#pc020202424)">
     <!-- 23 -->
     <g transform="translate(226.310233 266.338948)scale(0.12 -0.12)">
      <use xlink:href="#DejaVuSans-Bold-32"/>
      <use x="69.580078" xlink:href="#DejaVuSans-Bold-33"/>
     </g>
    </g>
   </g>
   <g id="text_45">
    <g clip-path="url(#pc020202424)">
     <!-- 24 -->
     <g transform="translate(262.814012 261.146203)scale(0.12 -0.12)">
      <use xlink:href="#DejaVuSans-Bold-32"/>
      <use x="69.580078" xlink:href="#DejaVuSans-Bold-34"/>
     </g>
    </g>
   </g>
   <g id="text_46">
    <g clip-path="url(#pc020202424)">
     <!-- 25 -->
     <g transform="translate(296.906807 250.987683)scale(0.12 -0.12)">
      <use xlink:href="#DejaVuSans-Bold-32"/>
      <use x="69.580078" xlink:href="#DejaVuSans-Bold-35"/>
     </g>
    </g>
   </g>
   <g id="text_47">
    <g clip-path="url(#pc020202424)">
     <!-- 26 -->
     <g transform="translate(327.098758 236.307324)scale(0.12 -0.12)">
      <use xlink:href="#DejaVuSans-Bold-32"/>
      <use x="69.580078" xlink:href="#DejaVuSans-Bold-36"/>
     </g>
    </g>
   </g>
   <g id="text_48">
    <g clip-path="url(#pc020202424)">
     <!-- 27 -->
     <g transform="translate(352.070178 217.746782)scale(0.12 -0.12)">
      <use xlink:href="#DejaVuSans-Bold-32"/>
      <use x="69.580078" xlink:href="#DejaVuSans-Bold-37"/>
     </g>
    </g>
   </g>
   <g id="text_49">
    <g clip-path="url(#pc020202424)">
     <!-- 28 -->
     <g transform="translate(370.72983 196.117173)scale(0.12 -0.12)">
      <use xlink:href="#DejaVuSans-Bold-32"/>
      <use x="69.580078" xlink:href="#DejaVuSans-Bold-38"/>
     </g>
    </g>
   </g>
   <g id="text_50">
    <g clip-path="url(#pc020202424)">
     <!-- 29 -->
     <g transform="translate(382.262091 172.363903)scale(0.12 -0.12)">
      <use xlink:href="#DejaVuSans-Bold-32"/>
      <use x="69.580078" xlink:href="#DejaVuSans-Bold-39"/>
     </g>
    </g>
   </g>
  </g>
 </g>
 <defs>
  <clipPath id="pc020202424">
   <rect height="288" width="432" x="0" y="0"/>
  </clipPath>
 </defs>
</svg>
